<svg width="501" height="408" viewBox="0 0 501 408" fill="none" xmlns="http://www.w3.org/2000/svg">
<path d="M444.754 344.713C444.754 344.713 500.8 295.332 500.8 230.167C500.8 165.001 464.423 164.989 432.951 81.0533C401.478 -2.88196 312.004 -13.7407 257.928 12.9149C212.034 35.5512 198.934 103.766 159.597 116.603C120.26 129.439 116.397 97.8455 53.4017 114.625C-9.59389 131.404 22.9077 223.251 22.9077 223.251L144.884 185.724L444.754 344.713Z" fill="#0066FF"/>
<path opacity="0.7" d="M444.754 344.713C444.754 344.713 500.8 295.332 500.8 230.167C500.8 165.001 464.423 164.989 432.951 81.0533C401.478 -2.88196 312.004 -13.7407 257.928 12.9149C212.034 35.5512 198.934 103.766 159.597 116.603C120.26 129.439 116.397 97.8455 53.4017 114.625C-9.59389 131.404 22.9077 223.251 22.9077 223.251L144.884 185.724L444.754 344.713Z" fill="white"/>
<path d="M227.382 344.522L142.685 378.553L44.418 279.867L108.798 270.514L227.382 344.522Z" fill="#0066FF"/>
<path opacity="0.5" d="M227.382 344.522L142.685 378.553L44.418 279.867L108.798 270.514L227.382 344.522Z" fill="white"/>
<path d="M331.57 389.617C342.797 389.617 351.899 383.521 351.899 376.002C351.899 368.482 342.797 362.387 331.57 362.387C320.342 362.387 311.24 368.482 311.24 376.002C311.24 383.521 320.342 389.617 331.57 389.617Z" fill="#0066FF"/>
<path opacity="0.5" d="M331.57 389.617C342.797 389.617 351.899 383.521 351.899 376.002C351.899 368.482 342.797 362.387 331.57 362.387C320.342 362.387 311.24 368.482 311.24 376.002C311.24 383.521 320.342 389.617 331.57 389.617Z" fill="white"/>
<path d="M251.955 298.7L376.066 308.576L348.519 294.336L251.955 298.7Z" fill="#0066FF"/>
<path opacity="0.5" d="M251.955 298.7L376.066 308.576L348.519 294.336L251.955 298.7Z" fill="white"/>
<path d="M279.907 260.306L243.086 257.282L247.711 251.795H268.891L279.907 260.306Z" fill="#0066FF"/>
<path opacity="0.5" d="M279.907 260.306L243.086 257.282L247.711 251.795H268.891L279.907 260.306Z" fill="white"/>
<path d="M399.306 407.902C413.572 407.902 425.137 400.858 425.137 392.169C425.137 383.479 413.572 376.436 399.306 376.436C385.04 376.436 373.475 383.479 373.475 392.169C373.475 400.858 385.04 407.902 399.306 407.902Z" fill="#0066FF"/>
<path opacity="0.5" d="M399.306 407.902C413.572 407.902 425.137 400.858 425.137 392.169C425.137 383.479 413.572 376.436 399.306 376.436C385.04 376.436 373.475 383.479 373.475 392.169C373.475 400.858 385.04 407.902 399.306 407.902Z" fill="white"/>
<path d="M246.237 355.635L232.324 378.59L263.136 384.587L275.067 361.632L246.237 355.635Z" fill="white" stroke="#263238" stroke-linecap="round" stroke-linejoin="round"/>
<path d="M270.098 329.693L256.186 350.645L285.002 359.628L296.933 338.676L270.098 329.693Z" fill="#0066FF"/>
<path opacity="0.5" d="M270.098 329.693L256.186 350.645L285.002 359.628L296.933 338.676L270.098 329.693Z" fill="white" stroke="#263238" stroke-miterlimit="10"/>
<path d="M270.098 329.693L256.186 350.645L285.002 359.628L296.933 338.676L270.098 329.693Z" stroke="#263238" stroke-linecap="round" stroke-linejoin="round"/>
<path d="M300.911 369.619L276.059 376.599L285.995 392.574L314.824 385.582L300.911 369.619Z" fill="#0066FF" stroke="#263238" stroke-linecap="round" stroke-linejoin="round"/>
<path d="M371.809 365.525L374.35 384.908C374.35 392.934 384.07 399.454 396.064 399.454C408.058 399.454 417.791 392.934 417.791 384.908L420.408 365.525H371.809Z" fill="#0066FF" stroke="#263238" stroke-linecap="round" stroke-linejoin="round"/>
<path d="M396.089 381.819C409.527 381.819 420.421 374.524 420.421 365.525C420.421 356.526 409.527 349.23 396.089 349.23C382.651 349.23 371.758 356.526 371.758 365.525C371.758 374.524 382.651 381.819 396.089 381.819Z" fill="#0066FF" stroke="#263238" stroke-linecap="round" stroke-linejoin="round"/>
<path d="M396.09 379.383C407.521 379.383 416.788 373.179 416.788 365.525C416.788 357.872 407.521 351.668 396.09 351.668C384.659 351.668 375.393 357.872 375.393 365.525C375.393 373.179 384.659 379.383 396.09 379.383Z" fill="#0066FF" stroke="#263238" stroke-linecap="round" stroke-linejoin="round"/>
<path d="M396.09 379.394C407.325 379.394 416.432 374.31 416.432 368.038C416.432 361.766 407.325 356.682 396.09 356.682C384.855 356.682 375.748 361.766 375.748 368.038C375.748 374.31 384.855 379.394 396.09 379.394Z" fill="#263238" stroke="#263238" stroke-linecap="round" stroke-linejoin="round"/>
<path d="M403.42 328.33C399.888 326.046 394.526 326.25 392.379 330.474C389.202 336.624 391.477 348.019 390.333 349.614C389.19 351.209 385.797 351.668 384.209 348.248C382.621 344.829 382.621 340.273 380.575 340.044C378.529 339.814 375.81 340.733 375.353 345.977C374.896 351.221 375.81 357.142 379.444 359.873C383.078 362.603 387.157 361.697 388.338 362.846C389.52 363.994 388.338 365.781 388.338 366.954C388.338 372.058 394.983 374.61 399.189 373.334C405.313 371.51 404.64 365.347 405.542 362.846C406.444 360.345 411.45 360.102 413.267 356.236C415.084 352.37 417.803 344.599 413.941 341.639C410.078 338.678 407.13 340.044 406.686 343.234C406.157 345.767 405.303 348.22 404.144 350.532C406.863 345.135 409.532 332.286 403.42 328.33Z" fill="#0066FF"/>
<path opacity="0.2" d="M403.42 328.33C399.888 326.046 394.526 326.25 392.379 330.474C389.202 336.624 391.477 348.019 390.333 349.614C389.19 351.209 385.797 351.668 384.209 348.248C382.621 344.829 382.621 340.273 380.575 340.044C378.529 339.814 375.81 340.733 375.353 345.977C374.896 351.221 375.81 357.142 379.444 359.873C383.078 362.603 387.157 361.697 388.338 362.846C389.52 363.994 388.338 365.781 388.338 366.954C388.338 372.058 394.983 374.61 399.189 373.334C405.313 371.51 404.64 365.347 405.542 362.846C406.444 360.345 411.45 360.102 413.267 356.236C415.084 352.37 417.803 344.599 413.941 341.639C410.078 338.678 407.13 340.044 406.686 343.234C406.157 345.767 405.303 348.22 404.144 350.532C406.863 345.135 409.532 332.286 403.42 328.33Z" fill="black"/>
<path d="M403.42 328.33C399.888 326.046 394.526 326.25 392.379 330.474C389.202 336.624 391.477 348.019 390.333 349.614C389.19 351.209 385.797 351.668 384.209 348.248C382.621 344.829 382.621 340.273 380.575 340.044C378.529 339.814 375.81 340.733 375.353 345.977C374.896 351.221 375.81 357.142 379.444 359.873C383.078 362.603 387.157 361.697 388.338 362.846C389.52 363.994 388.338 365.781 388.338 366.954C388.338 372.058 394.983 374.61 399.189 373.334C405.313 371.51 404.64 365.347 405.542 362.846C406.444 360.345 411.45 360.102 413.267 356.236C415.084 352.37 417.803 344.599 413.941 341.639C410.078 338.678 407.13 340.044 406.686 343.234C406.157 345.767 405.303 348.22 404.144 350.532C406.863 345.135 409.532 332.286 403.42 328.33Z" stroke="#263238" stroke-linecap="round" stroke-linejoin="round"/>
<path d="M397.831 330.014C396.8 330.695 395.937 331.603 395.308 332.668C394.678 333.734 394.298 334.929 394.197 336.164C393.968 340.273 394.197 353.262 392.609 355.087C391.02 356.912 385.798 356.452 382.444 353.262C379.09 350.072 380.576 343.246 380.576 343.246" stroke="#263238" stroke-width="0.5" stroke-linecap="round" stroke-linejoin="round"/>
<path d="M381.58 357.283C382.757 358.203 384.118 358.856 385.57 359.197C389.661 360.103 392.609 358.062 393.295 360.103C393.981 362.145 392.609 369.456 392.609 369.456" stroke="#263238" stroke-width="0.5" stroke-linecap="round" stroke-linejoin="round"/>
<path d="M379.217 354.857C379.64 355.456 380.125 356.008 380.665 356.503" stroke="#263238" stroke-width="0.5" stroke-linecap="round" stroke-linejoin="round"/>
<path d="M397.754 365.717C397.983 362.319 398.009 358.91 397.83 355.509C397.424 350.405 399.787 340.924 400.371 336.637" stroke="#263238" stroke-width="0.5" stroke-linecap="round" stroke-linejoin="round"/>
<path d="M397.373 371.05C397.373 371.05 397.5 369.659 397.64 367.617" stroke="#263238" stroke-width="0.5" stroke-linecap="round" stroke-linejoin="round"/>
<path d="M413.09 348.21C413.205 347.1 413.268 346.424 413.268 346.424" stroke="#263238" stroke-width="0.5" stroke-linecap="round" stroke-linejoin="round"/>
<path d="M402.365 366.941C402.365 366.941 403.28 359.426 405.097 358.009C406.914 356.593 412.123 355.725 412.581 352.306C412.657 351.77 412.721 351.259 412.784 350.787" stroke="#263238" stroke-width="0.5" stroke-linecap="round" stroke-linejoin="round"/>
<path d="M410.091 343.463C409.615 343.783 409.235 344.229 408.993 344.751C408.752 345.273 408.657 345.851 408.719 346.423C408.812 347.789 408.522 349.154 407.882 350.363C407.242 351.572 406.277 352.576 405.098 353.263" stroke="#263238" stroke-width="0.5" stroke-linecap="round" stroke-linejoin="round"/>
<path d="M400.625 334.033C400.694 332.757 400.668 331.477 400.549 330.205" stroke="#263238" stroke-width="0.5" stroke-linecap="round" stroke-linejoin="round"/>
<path d="M314.1 329.03L317.467 364.631V368.395C317.467 373.499 324.607 377.544 333.425 377.544C342.243 377.544 349.384 373.448 349.384 368.395V364.631L352.446 328.66L314.1 329.03Z" fill="white" stroke="#263238" stroke-linecap="round" stroke-linejoin="round"/>
<path d="M349.535 362.704L351.301 341.969C348.925 345.682 341.836 348.349 333.45 348.349C324.619 348.349 317.237 345.363 315.268 341.344L317.275 362.576C320.528 365.294 326.538 367.132 333.45 367.132C340.362 367.132 346.283 365.384 349.535 362.704Z" fill="#0066FF" stroke="#263238" stroke-linecap="round" stroke-linejoin="round"/>
<path d="M314.736 335.742V335.499L314.57 334.07L314.736 335.742Z" fill="white" stroke="#263238" stroke-linecap="round" stroke-linejoin="round"/>
<path d="M353.056 323.748C349.676 319.461 342.167 316.462 333.425 316.462C324.683 316.462 317.174 319.461 313.782 323.748H311.863V328.852C311.863 335.691 321.52 341.229 333.463 341.229C345.407 341.229 355.063 335.691 355.063 328.852V323.748H353.056Z" fill="#0066FF" stroke="#263238" stroke-linecap="round" stroke-linejoin="round"/>
<path opacity="0.2" d="M353.056 323.748C349.676 319.461 342.167 316.462 333.425 316.462C324.683 316.462 317.174 319.461 313.782 323.748H311.863V328.852C311.863 335.691 321.52 341.229 333.463 341.229C345.407 341.229 355.063 335.691 355.063 328.852V323.748H353.056Z" fill="black"/>
<path d="M333.425 336.126C345.333 336.126 354.987 330.584 354.987 323.748C354.987 316.913 345.333 311.371 333.425 311.371C321.517 311.371 311.863 316.913 311.863 323.748C311.863 330.584 321.517 336.126 333.425 336.126Z" fill="white" stroke="#263238" stroke-linecap="round" stroke-linejoin="round"/>
<path d="M350.578 316.845C347.617 313.093 341.061 310.465 333.425 310.465C325.789 310.465 319.232 313.081 316.272 316.845H314.633V321.285C314.633 327.257 323.057 332.093 333.463 332.093C343.869 332.093 352.293 327.257 352.293 321.285V316.845H350.578Z" fill="#0066FF" stroke="#263238" stroke-linecap="round" stroke-linejoin="round"/>
<path d="M333.426 327.653C343.825 327.653 352.256 322.814 352.256 316.845C352.256 310.876 343.825 306.037 333.426 306.037C323.026 306.037 314.596 310.876 314.596 316.845C314.596 322.814 323.026 327.653 333.426 327.653Z" fill="white" stroke="#263238" stroke-linecap="round" stroke-linejoin="round"/>
<path d="M143.371 211.894C143.371 211.894 144.845 210.911 154.196 214.854C163.548 218.797 167.22 217.942 176.317 216.334C187.244 214.42 196.316 212.506 197.409 216.947C199.302 224.603 191.653 224.513 177.893 225.994C164.132 227.474 156.153 223.25 151.732 221.272C149.696 220.433 147.726 219.444 145.836 218.312L143.371 211.894Z" fill="white" stroke="#263238" stroke-linecap="round" stroke-linejoin="round"/>
<path d="M122.229 215.85C122.229 215.85 134.529 230.167 139.929 226.211C145.329 222.256 144.846 209.432 139.929 205.476C135.011 201.521 121.251 208.934 122.229 215.85Z" fill="white" stroke="#263238" stroke-linecap="round" stroke-linejoin="round"/>
<path d="M159.622 176.345C159.622 176.345 160.118 189.679 156.674 198.56C153.231 207.441 146.84 213.375 145.862 218.313C144.883 223.251 145.366 230.167 140.449 232.145C135.532 234.122 135.532 230.664 136.027 226.709C136.523 222.753 137.501 207.952 137.501 207.952L121.25 217.815C121.25 217.815 125.672 230.167 116.333 231.647C106.994 233.127 95.6863 218.81 94.2124 207.99C92.7385 197.169 98.634 172.925 108.964 166.507C119.294 160.089 132.559 161.084 139.458 161.084C146.357 161.084 156.649 165.984 159.622 176.345Z" fill="white" stroke="#263238" stroke-linecap="round" stroke-linejoin="round"/>
<path d="M120.424 162.642C120.424 162.642 117.883 163.918 113.448 170.923C109.014 177.928 117.883 183.964 122.647 180.787C127.412 177.609 123.27 170.923 126.764 167.733C128.774 166.021 130.123 163.655 130.576 161.047L120.424 162.642Z" fill="#263238"/>
<path d="M106.168 172.505C105.032 173.32 104.078 174.363 103.367 175.57C102.656 176.776 102.203 178.118 102.039 179.51C101.721 183.963 109.662 175.682 110.602 171.854C111.543 168.026 106.168 172.505 106.168 172.505Z" fill="#263238"/>
<path d="M134.529 162.526C133.401 164.583 132.851 166.91 132.939 169.256C133.026 171.603 133.747 173.881 135.024 175.848C139.446 182.764 149.28 185.724 153.206 180.786C157.132 175.848 158.619 173.385 157.145 170.922C155.671 168.46 141.415 158.571 134.529 162.526Z" fill="#0066FF" stroke="#263238" stroke-linecap="round" stroke-linejoin="round"/>
<path d="M170.906 138.332C169.04 138.536 167.152 138.332 165.371 137.736C163.59 137.139 161.959 136.163 160.589 134.874C155.672 130.434 151.237 120.558 149.281 121.043C147.324 121.527 140.386 135.857 140.386 135.857C140.386 135.857 128.583 136.852 127.604 140.297C126.626 143.743 132.026 160.05 136.498 166.966C138.584 170.046 141.361 172.592 144.605 174.398C147.849 176.205 151.47 177.221 155.176 177.365C161.072 177.365 178.771 178.845 181.236 172.912C183.701 166.979 181.719 149.217 181.719 149.217C181.719 149.217 189.596 141.318 186.153 139.838C182.71 138.358 170.906 138.332 170.906 138.332Z" fill="white" stroke="#263238" stroke-linecap="round" stroke-linejoin="round"/>
<path d="M168.516 163.037C167.919 162.258 167.347 161.467 166.788 160.65C165.861 159.272 163.662 157.167 159.431 158.507C153.409 160.408 149.267 166.163 155.95 170.922C162.239 175.452 174.869 171.369 168.516 163.037Z" fill="#263238"/>
<path d="M140.424 135.858C140.424 135.858 147.31 139.813 151.236 138.333C155.163 136.853 152.71 120.061 149.28 121.043C145.849 122.026 139.928 129.439 140.424 135.858Z" fill="white" stroke="#263238" stroke-linecap="round" stroke-linejoin="round"/>
<path d="M186.152 139.814C186.152 139.814 179.8 139.316 175.823 143.756C171.846 148.197 174.349 152.688 179.761 153.633C185.174 154.577 188.109 139.814 186.152 139.814Z" fill="white" stroke="#263238" stroke-linecap="round" stroke-linejoin="round"/>
<path d="M147.806 167.464C147.806 167.464 141.453 162.526 142.889 166.468C144.325 170.411 146.815 170.922 149.242 169.926C151.669 168.931 147.806 167.464 147.806 167.464Z" fill="#0066FF" stroke="#263238" stroke-linecap="round" stroke-linejoin="round"/>
<path d="M144.299 155.088C143.931 156.364 142.889 157.257 141.974 157.002C141.059 156.747 140.615 155.471 140.983 154.156C141.352 152.842 142.393 151.987 143.308 152.242C144.223 152.498 144.668 153.786 144.299 155.088Z" fill="#263238"/>
<path d="M159.456 166.737C158.275 167.426 156.915 167.324 156.458 166.494C156 165.665 156.534 164.453 157.728 163.764C158.165 163.415 158.716 163.245 159.272 163.288C159.828 163.33 160.348 163.582 160.727 163.993C161.184 164.823 160.625 166.048 159.456 166.737Z" fill="white"/>
<path d="M115.355 198.076C115.355 198.076 113.881 208.934 115.838 213.388C117.794 217.841 119.776 234.62 123.715 235.08C127.654 235.539 126.167 226.148 126.167 224.706C126.167 223.264 126.663 207.429 126.663 207.429C126.663 207.429 130.106 200.015 132.063 196.072" fill="white"/>
<path d="M115.355 198.076C115.355 198.076 113.881 208.934 115.838 213.388C117.794 217.841 119.776 234.62 123.715 235.08C127.654 235.539 126.167 226.148 126.167 224.706C126.167 223.264 126.663 207.429 126.663 207.429C126.663 207.429 130.106 200.015 132.063 196.072" stroke="#263238" stroke-linecap="round" stroke-linejoin="round"/>
<path d="M99.1289 197.577C99.1289 197.577 112.407 193.621 113.88 208.436" stroke="#263238" stroke-linecap="round" stroke-linejoin="round"/>
<path d="M137.477 207.991C137.477 207.991 148.785 202.057 149.28 189.221" stroke="#263238" stroke-linecap="round" stroke-linejoin="round"/>
<path d="M0.798828 228.187L9.17197 226.286" stroke="#263238" stroke-linecap="round" stroke-linejoin="round"/>
<path d="M70.6816 277.811L138.2 258.582C140.347 258.353 142.506 258.876 144.312 260.062L254.179 330.561C254.647 330.865 255.011 331.306 255.222 331.824C255.432 332.342 255.478 332.913 255.355 333.459C255.232 334.005 254.944 334.499 254.532 334.876C254.119 335.252 253.601 335.492 253.049 335.563L160.652 364.464L70.6816 277.811Z" fill="#0066FF" stroke="#263238" stroke-linecap="round" stroke-linejoin="round"/>
<path d="M110.158 281.868L119.726 288.491L130.78 285.352L121.225 278.742L110.158 281.868Z" fill="#263238"/>
<path d="M116.118 300.384L106.563 293.762L95.4961 296.901L105.064 303.523L116.118 300.384Z" fill="#263238"/>
<path d="M134.197 285.926L143.752 292.536L154.806 289.397L145.251 282.787L134.197 285.926Z" fill="#263238"/>
<path d="M145.34 293.633L154.895 300.243L165.949 297.104L156.394 290.494L145.34 293.633Z" fill="#263238"/>
<path d="M121.301 289.575L130.856 296.198L141.91 293.059L132.355 286.449L121.301 289.575Z" fill="#263238"/>
<path d="M97.2617 285.532L106.817 292.154L117.883 289.015L108.316 282.393L97.2617 285.532Z" fill="#263238"/>
<path d="M173.56 327.55L163.993 320.928L152.951 324.067L162.506 330.689L173.56 327.55Z" fill="#263238"/>
<path d="M160.652 331.212L151.097 324.59L140.043 327.729L149.61 334.338L160.652 331.212Z" fill="#263238"/>
<path d="M127.248 308.091L117.693 301.469L106.639 304.608L116.193 311.217L127.248 308.091Z" fill="#263238"/>
<path d="M184.691 335.256L175.136 328.646L164.082 331.773L173.637 338.395L184.691 335.256Z" fill="#263238"/>
<path d="M138.391 315.798L128.824 309.176L117.77 312.315L127.337 318.924L138.391 315.798Z" fill="#263238"/>
<path d="M149.521 323.505L139.966 316.883L128.912 320.022L138.467 326.644L149.521 323.505Z" fill="#263238"/>
<path d="M156.471 301.34L166.025 307.95L177.08 304.811L167.525 298.201L156.471 301.34Z" fill="#263238"/>
<path d="M108.404 293.238L117.959 299.86L129.013 296.721L119.458 290.111L108.404 293.238Z" fill="#263238"/>
<path d="M197.587 331.594L188.033 324.984L176.979 328.123L186.533 334.733L197.587 331.594Z" fill="#263238"/>
<path d="M164.183 308.473L154.628 301.863L143.574 304.989L153.129 311.612L164.183 308.473Z" fill="#263238"/>
<path d="M140.144 304.429L130.589 297.807L119.535 300.946L129.09 307.568L140.144 304.429Z" fill="#263238"/>
<path d="M93.8439 284.971L88.2533 281.092L80.6934 283.223L85.115 287.446L93.8439 284.971Z" fill="#263238"/>
<path d="M104.973 292.677L95.4186 286.055L86.3594 288.632L93.8431 295.752L93.9194 295.803L104.973 292.677Z" fill="#263238"/>
<path d="M132.432 297.295L141.999 303.905L153.053 300.766L143.486 294.156L132.432 297.295Z" fill="#263238"/>
<path d="M151.287 312.135L141.732 305.525L130.678 308.652L140.233 315.274L151.287 312.135Z" fill="#263238"/>
<path d="M199.353 320.225L189.798 313.615L178.744 316.754L188.299 323.364L199.353 320.225Z" fill="#263238"/>
<path d="M167.602 309.047L177.169 315.657L188.223 312.518L178.668 305.908L167.602 309.047Z" fill="#263238"/>
<path d="M186.457 323.887L176.902 317.277L165.848 320.416L175.402 327.026L186.457 323.887Z" fill="#263238"/>
<path d="M175.314 316.18L165.759 309.57L154.705 312.697L164.273 319.319L175.314 316.18Z" fill="#263238"/>
<path d="M162.417 319.842L152.863 313.232L141.809 316.359L151.363 322.981L162.417 319.842Z" fill="#263238"/>
<path d="M114.351 311.741L104.797 305.131L103.945 305.373L111.48 312.557L114.351 311.741Z" fill="#263238"/>
<path d="M199.175 332.691L188.121 335.83L199.582 343.754L210.356 340.424L199.175 332.691Z" fill="#263238"/>
<path d="M186.265 336.354L175.211 339.48L187.015 347.646L197.777 344.316L186.265 336.354Z" fill="#263238"/>
<path d="M136.625 327.155L127.07 320.545L121.518 322.114L129.065 329.311L136.625 327.155Z" fill="#263238"/>
<path d="M210.497 327.932L200.929 321.322L189.875 324.461L199.443 331.071L210.497 327.932Z" fill="#263238"/>
<path d="M147.754 334.874L138.199 328.252L130.309 330.498L137.843 337.682L147.754 334.874Z" fill="#263238"/>
<path d="M158.898 342.581L149.343 335.959L139.09 338.868L146.637 346.052L158.898 342.581Z" fill="#263238"/>
<path d="M171.794 338.919L162.24 332.297L151.186 335.436L160.74 342.058L171.794 338.919Z" fill="#263238"/>
<path d="M234.23 328.533L227.877 324.539L213.9 328.507L224.7 335.985L233.112 333.433C233.666 333.384 234.19 333.16 234.61 332.794C235.029 332.427 235.322 331.936 235.446 331.391C235.571 330.847 235.52 330.277 235.301 329.763C235.083 329.25 234.707 328.819 234.23 328.533Z" fill="#263238"/>
<path d="M160.472 343.666L147.881 347.239L157.791 356.681L172.645 352.088L160.472 343.666Z" fill="#263238"/>
<path d="M216.086 317.023L202.783 320.8L212.338 327.41L226.251 323.467L216.086 317.023Z" fill="#263238"/>
<path d="M212.072 329.029L201.018 332.168L212.148 339.875L222.922 336.545L212.072 329.029Z" fill="#263238"/>
<path d="M134.387 273.46L143.421 270.896L137.589 267.195L128.873 269.645L134.387 273.46Z" fill="#263238"/>
<path d="M185.21 348.209L173.369 340.004L162.314 343.143L174.436 351.539L185.21 348.209Z" fill="#263238"/>
<path d="M135.963 274.557L145.518 281.167L155.263 278.411L145.098 271.967L135.963 274.557Z" fill="#263238"/>
<path d="M158.236 289.972L167.791 296.582L178.921 293.43L168.769 286.986L158.236 289.972Z" fill="#263238"/>
<path d="M147.094 282.265L156.661 288.875L167.093 285.915L156.928 279.471L147.094 282.265Z" fill="#263238"/>
<path d="M169.367 297.678L178.922 304.288L190.751 300.945L180.599 294.488L169.367 297.678Z" fill="#263238"/>
<path d="M180.51 305.385L190.065 311.995L202.58 308.448L192.428 302.004L180.51 305.385Z" fill="#263238"/>
<path d="M204.258 309.508L191.641 313.093L201.195 319.703L214.409 315.964L204.258 309.508Z" fill="#263238"/>
<path d="M123.066 278.219L132.621 284.829L143.675 281.69L134.12 275.08L123.066 278.219Z" fill="#263238"/>
<path d="M100.742 302.336L102.699 304.186L103.207 304.033L100.742 302.336Z" fill="#263238"/>
<path d="M95.6863 284.446L106.74 281.307L101.175 277.453L90.0957 280.567L95.6863 284.446Z" fill="#263238"/>
<path d="M108.583 280.784L119.637 277.645L114.097 273.805L103.018 276.931L108.583 280.784Z" fill="#263238"/>
<path d="M115.951 273.294L121.491 277.122L132.545 273.983L127.018 270.168L115.951 273.294Z" fill="#263238"/>
<path d="M125.481 319.46L115.926 312.838L112.725 313.744L120.272 320.928L125.481 319.46Z" fill="#263238"/>
<path d="M160.587 364.464L131.364 245.656C130.698 242.955 129.263 240.507 127.235 238.612L48.4584 164.846C48.1236 164.534 47.6979 164.338 47.2438 164.287C46.7897 164.236 46.3313 164.332 45.9359 164.562C45.5405 164.792 45.229 165.143 45.0473 165.564C44.8655 165.985 44.823 166.454 44.9261 166.901L70.6809 277.811L160.587 364.464Z" fill="#0066FF" stroke="#263238" stroke-linecap="round" stroke-linejoin="round"/>
<path d="M116.422 233.752L125.43 241.663C125.43 241.663 128.238 242.225 131.046 256.35" stroke="#263238" stroke-width="0.5" stroke-linecap="round" stroke-linejoin="round"/>
<path d="M132.736 263.686L149.343 335.958" stroke="#263238" stroke-width="0.5" stroke-linecap="round" stroke-linejoin="round"/>
<path d="M84.1099 230.524C88.0106 240.043 87.6548 249.217 83.3094 251.016C78.9641 252.815 72.2681 246.55 68.3674 236.98C64.4667 227.41 64.8225 218.287 69.1679 216.5C73.5132 214.714 80.2092 221.005 84.1099 230.524Z" fill="#0066FF"/>
<path opacity="0.6" d="M84.1099 230.524C88.0106 240.043 87.6548 249.217 83.3094 251.016C78.9641 252.815 72.2681 246.55 68.3674 236.98C64.4667 227.41 64.8225 218.287 69.1679 216.5C73.5132 214.714 80.2092 221.005 84.1099 230.524Z" fill="white"/>
<path d="M81.2644 246.036C84.353 244.758 84.6064 238.234 81.8304 231.464C79.0544 224.693 74.3002 220.24 71.2116 221.518C68.123 222.795 67.8695 229.319 70.6455 236.089C73.4215 242.86 78.1758 247.313 81.2644 246.036Z" stroke="#263238" stroke-miterlimit="10"/>
<path d="M90.1335 269.555C92.1665 274.493 91.3279 279.52 88.2785 280.784C85.2291 282.047 81.1124 279.061 79.0794 274.136C77.0465 269.21 77.8978 264.17 80.9472 262.907C83.9966 261.644 88.1133 264.63 90.1335 269.555Z" fill="#263238"/>
<path d="M85.9289 277.913C84.0103 277.913 81.9265 276.165 80.8465 273.435C80.2385 272.031 80.0275 270.485 80.2367 268.969C80.2925 268.336 80.5118 267.729 80.8728 267.208C81.2337 266.686 81.724 266.268 82.295 265.996C84.4423 265.102 87.1868 266.978 88.5336 270.257C89.8677 273.537 89.2324 276.803 87.0851 277.697C86.7172 277.843 86.3246 277.917 85.9289 277.913ZM83.3877 267.055C83.1694 267.053 82.9531 267.096 82.7524 267.182C82.3873 267.379 82.0786 267.666 81.8561 268.017C81.6336 268.368 81.5047 268.77 81.4818 269.186C81.3001 270.487 81.485 271.813 82.0155 273.014C83.0446 275.566 85.1411 277.173 86.5896 276.574C88.038 275.974 88.3811 273.333 87.3392 270.806C86.3863 268.573 84.6583 267.055 83.3877 267.055Z" fill="#0066FF"/>
<g opacity="0.5">
<path opacity="0.5" d="M85.9289 277.913C84.0103 277.913 81.9265 276.165 80.8465 273.435C80.2385 272.031 80.0275 270.485 80.2367 268.969C80.2925 268.336 80.5118 267.729 80.8728 267.208C81.2337 266.686 81.724 266.268 82.295 265.996C84.4423 265.102 87.1868 266.978 88.5336 270.257C89.8677 273.537 89.2324 276.803 87.0851 277.697C86.7172 277.843 86.3246 277.917 85.9289 277.913ZM83.3877 267.055C83.1694 267.053 82.9531 267.096 82.7524 267.182C82.3873 267.379 82.0786 267.666 81.8561 268.017C81.6336 268.368 81.5047 268.77 81.4818 269.186C81.3001 270.487 81.485 271.813 82.0155 273.014C83.0446 275.566 85.1411 277.173 86.5896 276.574C88.038 275.974 88.3811 273.333 87.3392 270.806C86.3863 268.573 84.6583 267.055 83.3877 267.055Z" fill="white"/>
</g>
<path d="M112.789 271.137L105.559 282.621C105.373 282.9 105.273 283.229 105.273 283.565C105.273 283.901 105.373 284.23 105.559 284.509L121.035 307.171C121.17 307.372 121.347 307.543 121.552 307.671C121.757 307.8 121.987 307.884 122.226 307.917C122.466 307.951 122.71 307.934 122.942 307.867C123.175 307.8 123.391 307.685 123.576 307.529L131.593 300.957C131.913 300.699 132.129 300.333 132.201 299.927C132.273 299.522 132.198 299.104 131.987 298.75L115.711 271.201C115.566 270.944 115.356 270.729 115.103 270.577C114.85 270.426 114.562 270.343 114.268 270.336C113.974 270.33 113.682 270.4 113.423 270.541C113.164 270.681 112.945 270.886 112.789 271.137Z" fill="#263238"/>
<path d="M100.208 286.36C100.208 286.36 120.233 283.017 133.993 311.344L137.411 307.121C137.411 307.121 124.159 284.957 113.359 282.979C102.559 281.001 98.6328 280.988 98.6328 280.988L100.208 286.36Z" fill="#0066FF"/>
<path opacity="0.5" d="M100.208 286.36C100.208 286.36 120.233 283.017 133.993 311.344L137.411 307.121C137.411 307.121 124.159 284.957 113.359 282.979C102.559 281.001 98.6328 280.988 98.6328 280.988L100.208 286.36Z" fill="white"/>
<path d="M13.8477 225.228L46.5271 217.814" stroke="#263238" stroke-linecap="round" stroke-linejoin="round"/>
<path d="M221.333 296.684C217.416 297.304 213.466 297.701 209.504 297.87C203.367 298.113 200.762 298.113 201.703 299.542C202.643 300.971 209.987 302.387 212.579 302.859C215.171 303.332 221.333 296.684 221.333 296.684Z" fill="white" stroke="#263238" stroke-miterlimit="10"/>
<path d="M451.768 348.299L440.828 342.557" stroke="#263238" stroke-linecap="round" stroke-linejoin="round"/>
<path d="M233.24 214.19C233.24 214.19 235.54 210.145 236.506 215.16L233.24 214.19Z" fill="#263238"/>
<path d="M434.055 338.996L167.334 199.057" stroke="#263238" stroke-linecap="round" stroke-linejoin="round"/>
<path d="M174.348 253.862L230.393 290.151L276.49 271.266L214.396 239.57L174.348 253.862Z" fill="#263238" stroke="#263238" stroke-linecap="round" stroke-linejoin="round"/>
<path d="M210.368 246.295L188.031 254.219" stroke="white" stroke-width="0.5" stroke-linecap="round" stroke-linejoin="round"/>
<path d="M191.539 256.859L231.842 282.379L264.687 269.619" stroke="white" stroke-width="0.5" stroke-linecap="round" stroke-linejoin="round"/>
<path d="M405.276 82.3789C405.276 82.3789 437.371 87.4829 447.701 104.76C458.031 122.037 450.648 149.19 447.205 158.569C444.092 167.08 453.291 174.187 458.945 178.806C471.651 189.167 478.195 203.79 471.588 219.702C467.471 229.604 449.162 234.044 451.639 245.962C454.117 257.88 464.904 274.596 451.144 286.947C436.621 299.962 414.831 293.251 402.099 281.09C387.78 267.412 382.85 243.614 390.181 225.227C399.075 203.012 403.942 188.695 395.581 179.291C387.221 169.887 376.408 163.979 376.408 150.658C376.408 137.336 388.212 133.381 393.129 120.034C398.046 106.687 391.16 92.8804 391.16 92.8804L405.276 82.3789Z" fill="#263238" stroke="#263238" stroke-linecap="round" stroke-linejoin="round"/>
<path d="M435.338 105.424C441.538 110.132 447.18 118.056 445.223 130.944C441.259 157.102 422.009 158.812 434.461 175.298C446.913 191.784 458.247 184.383 455.972 204.85C453.698 225.317 446.354 232.705 446.354 232.705" stroke="white" stroke-miterlimit="10"/>
<path d="M422.061 99.1328C424.543 99.7191 426.954 100.575 429.252 101.685" stroke="white" stroke-miterlimit="10"/>
<path d="M415.836 106.533C415.836 106.533 432.252 111.076 437.347 124.716C442.442 138.357 422.1 149.739 420.931 158.262" stroke="white" stroke-miterlimit="10"/>
<path d="M415.11 329.056C414.881 321.234 414.78 310.796 415.25 299.784C416.241 277.071 443.279 246.945 444.257 241.522C445.235 236.099 442.783 235.142 442.783 235.142L389.19 211.932C364.274 228.367 358.213 276.165 356.727 298.47L415.11 329.056Z" fill="#0066FF" stroke="#263238" stroke-linecap="round" stroke-linejoin="round"/>
<path d="M436.965 236.584C436.965 236.584 441.463 239.404 436.965 243.921C432.468 248.438 420.092 267.642 415.01 278.934" stroke="#263238" stroke-width="0.5" stroke-linecap="round" stroke-linejoin="round"/>
<path d="M412.785 284.549C412.785 284.549 408.846 293.583 409.418 302.617C409.99 311.651 409.977 320.124 409.977 320.124" stroke="#263238" stroke-width="0.5" stroke-linecap="round" stroke-linejoin="round"/>
<path d="M307.658 224.322C310.022 230.498 312.868 243.781 310.975 251.373C309.996 255.316 306.718 263.597 303.809 270.653L376.067 308.576C375.99 293.468 376.181 269.62 378.1 265.192C380.933 258.544 403.626 195.893 402.241 181.652C400.856 167.412 373.411 146.996 373.411 146.996L377.617 112.289L352.574 127.486C352.574 127.486 349.728 141.242 346.894 144.572C344.061 147.902 320.898 152.636 314.278 161.16C307.658 169.684 310.022 195.816 310.022 197.232C310.022 198.649 305.295 218.197 307.658 224.322Z" fill="white"/>
<g style="mix-blend-mode:multiply" opacity="0.5">
<path d="M402.202 181.601C400.779 167.361 373.372 146.945 373.372 146.945L377.616 112.289L352.573 127.486C352.573 127.486 351.747 131.455 350.553 135.653C352.166 135.512 353.971 135.283 355.991 134.925C365.546 133.228 370.615 129.821 370.615 129.821L365.533 151.284C365.533 151.284 391.402 166.596 398.149 185.174C399.064 187.726 400.042 190.112 401.046 192.486C401.901 188.924 402.29 185.265 402.202 181.601Z" fill="#0066FF"/>
</g>
<path d="M307.658 224.322C310.022 230.498 312.868 243.781 310.975 251.373C309.996 255.316 306.718 263.597 303.809 270.653L376.067 308.576C375.99 293.468 376.181 269.62 378.1 265.192C380.933 258.544 403.626 195.893 402.241 181.652C400.856 167.412 373.411 146.996 373.411 146.996L377.617 112.289L352.574 127.486C352.574 127.486 349.728 141.242 346.894 144.572C344.061 147.902 320.898 152.636 314.278 161.16C307.658 169.684 310.022 195.816 310.022 197.232C310.022 198.649 305.295 218.197 307.658 224.322Z" stroke="#263238" stroke-linecap="round" stroke-linejoin="round"/>
<path d="M307.658 224.321C310.022 230.497 312.868 243.78 310.975 251.372C309.996 255.315 306.718 263.596 303.809 270.653L376.067 308.575C375.99 293.467 376.181 269.619 378.1 265.191C380.933 258.543 403.626 195.892 402.241 181.652C401.364 172.783 390.412 161.542 382.267 154.307C374.25 162.843 356.855 178.768 344.15 171.673C332.714 165.293 333.439 155.596 335.128 149.828C327.403 152.686 318.166 156.336 314.367 161.236C307.747 169.785 310.111 195.892 310.111 197.308C310.111 198.724 305.295 218.196 307.658 224.321Z" fill="#263238" stroke="#263238" stroke-linecap="round" stroke-linejoin="round"/>
<path d="M349.867 207.453L334.137 200.039C334.137 200.039 329.703 192.639 327.25 192.639C324.798 192.639 323.312 203.013 323.312 203.013C323.312 203.013 314.964 210.911 317.912 218.809C320.859 226.708 331.672 238.562 344.95 234.121C358.227 229.681 354.288 215.862 354.288 215.862C354.288 215.862 359.701 206.483 359.701 204.505C359.701 202.528 349.867 207.453 349.867 207.453Z" fill="white" stroke="#263238" stroke-linecap="round" stroke-linejoin="round"/>
<path d="M316.17 54.3704C316.17 54.3704 319.486 71.4688 319.003 83.3356C318.52 95.2024 313.806 99.9236 315.191 105.168C316.576 110.412 333.627 129.859 344.021 131.747C354.414 133.636 379 117.507 386.09 110.387C393.18 103.267 394.12 92.8291 393.18 88.5545C392.239 84.2799 388.453 50.1086 374.273 36.3405C360.094 22.5725 322.789 24.0016 316.17 54.3704Z" fill="white"/>
<g style="mix-blend-mode:multiply" opacity="0.5">
<path d="M374.351 36.3402C369.053 31.2362 360.514 28.1738 351.557 27.9824L350.972 45.6933C350.972 45.6933 348.152 63.2 358.278 77.3126C368.405 91.4251 377.4 95.3935 378.519 101.033C379.637 106.673 374.554 112.288 361.645 121.934C356.597 125.771 351.188 129.105 345.496 131.887C356.563 132.283 379.37 117.213 386.155 110.386C393.245 103.266 394.185 92.8287 393.245 88.5541C392.304 84.2795 388.493 50.1083 374.351 36.3402Z" fill="#0066FF"/>
</g>
<path d="M316.17 54.3704C316.17 54.3704 319.486 71.4688 319.003 83.3356C318.52 95.2024 313.806 99.9236 315.191 105.168C316.576 110.412 333.627 129.859 344.021 131.747C354.414 133.636 379 117.507 386.09 110.387C393.18 103.267 394.12 92.8291 393.18 88.5545C392.239 84.2799 388.453 50.1086 374.273 36.3405C360.094 22.5725 322.789 24.0016 316.17 54.3704Z" stroke="#263238" stroke-linecap="round" stroke-linejoin="round"/>
<path d="M334.136 89.5C334.136 89.5 332.713 98.5213 330.324 101.367C332.179 102.991 334.494 103.991 336.944 104.225" stroke="#263238" stroke-linecap="round" stroke-linejoin="round"/>
<path d="M335.076 112.288C338.156 113.659 341.511 114.287 344.876 114.123C348.24 113.959 351.52 113.007 354.453 111.344" stroke="#263238" stroke-linecap="round" stroke-linejoin="round"/>
<path d="M352.091 84.7517C352.091 86.334 351.354 87.61 350.439 87.61C349.524 87.61 348.787 86.334 348.787 84.7517C348.787 83.1695 349.524 81.9062 350.439 81.9062C351.354 81.9062 352.091 83.1822 352.091 84.7517Z" fill="#263238"/>
<path d="M328.698 80.9627C328.698 82.5321 327.961 83.8081 327.046 83.8081C326.131 83.8081 325.395 82.5321 325.395 80.9627C325.395 79.3932 326.131 78.1172 327.046 78.1172C327.961 78.1172 328.698 79.3932 328.698 80.9627Z" fill="#263238"/>
<path d="M322.32 68.6249C323.646 67.794 325.124 67.2392 326.667 66.9937C328.21 66.7482 329.787 66.8169 331.303 67.1958" stroke="#263238" stroke-linecap="round" stroke-linejoin="round"/>
<path d="M344.529 69.0952C344.529 69.0952 347.363 67.6661 353.512 71.4686" stroke="#263238" stroke-linecap="round" stroke-linejoin="round"/>
<path d="M347.364 41.5603C347.364 41.5603 334.137 52.4828 327.518 59.118C320.898 65.7532 318.064 70.5127 308.141 66.2509C298.218 61.989 291.115 47.2512 304.329 29.6935C317.544 12.1357 343.095 6.9041 368.138 14.0242C393.181 21.1443 403.6 37.2857 405.481 54.8562C407.361 72.4267 403.575 91.8729 394.681 97.1046C385.787 102.336 365.838 80.9631 358.749 67.6672C354.306 59.2646 350.5 50.5375 347.364 41.5603Z" fill="#263238" stroke="#263238" stroke-linecap="round" stroke-linejoin="round"/>
<path d="M347.364 41.5605C347.364 41.5605 311.673 46.8432 309.983 54.7927C308.293 62.7421 319.042 60.4836 319.042 60.4836" stroke="white" stroke-miterlimit="10"/>
<path d="M305.382 46.8047C302.968 51.9852 304.887 55.3667 304.887 55.3667" stroke="white" stroke-miterlimit="10"/>
<path d="M383.003 24.6664C383.003 24.6664 348.469 18.9882 348.469 34.3257C348.469 34.3257 327.53 26.9377 313.947 37.1712C311.908 38.6637 310.038 40.3751 308.369 42.2752" stroke="white" stroke-miterlimit="10"/>
<path d="M350.209 37.7441C350.209 37.7441 359.014 66.2755 377.387 73.5614" stroke="white" stroke-miterlimit="10"/>
<path d="M368.531 45.4141C375.608 51.2837 385.735 57.0767 397.755 56.5025" stroke="white" stroke-miterlimit="10"/>
<path d="M357.527 33.7637C359.182 36.0492 360.999 38.2113 362.965 40.233" stroke="white" stroke-miterlimit="10"/>
<path d="M312.867 70.9966L368.163 80.4901C368.163 80.4901 368.163 88.9372 365.8 93.2501C363.437 97.5629 360.603 97.614 354.454 97.614C348.304 97.614 339.753 93.786 339.334 92.3952C338.355 89.0265 339.016 77.9125 339.016 77.9125L334.607 77.198C334.607 77.198 335.179 90.1494 332.815 91.5785C330.452 93.0076 314.849 90.1494 312.016 86.3597C309.183 82.5699 310.974 70.5118 312.867 70.9966Z" stroke="#263238" stroke-linecap="round" stroke-linejoin="round"/>
<path d="M368.162 80.4914L392.748 76.2168V79.5344L368.162 85.7102V80.4914Z" fill="#0066FF" stroke="#263238" stroke-linecap="round" stroke-linejoin="round"/>
<path d="M410.893 83.4457C412.814 71.4434 408.311 60.7355 400.835 59.529C393.36 58.3224 385.742 67.0741 383.822 79.0765C381.901 91.0788 386.404 101.787 393.88 102.993C401.355 104.2 408.973 95.4481 410.893 83.4457Z" fill="#0066FF" stroke="#263238" stroke-linecap="round" stroke-linejoin="round"/>
<path d="M414.844 83.9239C413.231 94.0298 407.628 101.52 402.355 100.665C397.082 99.8101 394.096 90.9419 395.709 80.836C397.323 70.73 402.914 63.2527 408.199 64.1076C413.485 64.9625 416.458 73.8307 414.844 83.9239Z" fill="#0066FF" stroke="#263238" stroke-linecap="round" stroke-linejoin="round"/>
<path d="M407.386 41.5604C408.299 54.8442 406.858 68.1853 403.129 80.9633C403.129 80.9633 402.659 88.6193 409.749 85.2379C416.839 81.8565 415.899 52.9551 414.946 41.0883C413.993 29.2215 405.035 32.5391 407.386 41.5604Z" fill="white" stroke="#263238" stroke-linecap="round" stroke-linejoin="round"/>
<path d="M380.932 19.2427C380.932 19.2427 391.796 16.3973 397.45 26.3756C403.104 36.3539 402.177 45.3625 410.156 46.3067C418.135 47.2509 418.669 38.2424 414.412 26.8477C410.156 15.453 401.186 6.90382 388.886 5.95958C376.587 5.01534 370.539 14.9809 370.539 14.9809C370.539 14.9809 377.146 15.9251 380.932 19.2427Z" fill="#0066FF" stroke="#263238" stroke-linecap="round" stroke-linejoin="round"/>
<path d="M379.979 196.786L347.364 271.317C347.364 271.317 258.499 287.905 250.469 287.905C242.439 287.905 226.328 293.596 223.05 295.561C219.772 297.526 187.638 312.34 193.826 313.259C197.638 313.833 207.498 308.385 207.498 308.385C207.498 308.385 191.895 316.041 193.305 318.35C194.716 320.66 213.635 311.23 213.635 311.23C213.635 311.23 196.342 321.438 199.887 322.012C203.114 322.587 207.015 320.736 210.331 318.35C213.223 316.567 216.338 315.177 219.594 314.216C219.594 314.216 211.97 319.32 211.068 321.642C210.166 323.965 212.961 322.587 215.795 321.642C221.097 319.346 226.223 316.659 231.131 313.604C233.011 312.174 238.691 309.329 242.477 306.011L250.037 299.363C250.037 299.363 300.606 300.78 323.731 299.836C346.855 298.891 358.24 296.518 366.753 287.969C375.266 279.419 399.369 225.304 405.035 210.592C410.702 195.88 406.929 187.331 401.224 177.416" fill="white"/>
<g style="mix-blend-mode:multiply" opacity="0.5">
<path d="M381.3 245.618C366.053 274.418 353.182 283.452 339.689 290.278C326.195 297.105 251.955 298.751 251.955 298.751L255.081 299.504C268.485 299.836 305.04 300.614 323.692 299.848C346.855 298.904 358.201 296.531 366.714 287.982C375.227 279.432 399.33 225.317 404.997 210.605C407.627 203.791 408.211 198.304 407.538 193.379L404.323 195.408C397.664 212.595 389.975 229.363 381.3 245.618Z" fill="#0066FF"/>
</g>
<path d="M379.979 196.786L347.364 271.317C347.364 271.317 258.499 287.905 250.469 287.905C242.439 287.905 226.328 293.596 223.05 295.561C219.772 297.526 187.638 312.34 193.826 313.259C197.638 313.833 207.498 308.385 207.498 308.385C207.498 308.385 191.895 316.041 193.305 318.35C194.716 320.66 213.635 311.23 213.635 311.23C213.635 311.23 196.342 321.438 199.887 322.012C203.114 322.587 207.015 320.736 210.331 318.35C213.223 316.567 216.338 315.177 219.594 314.216C219.594 314.216 211.97 319.32 211.068 321.642C210.166 323.965 212.961 322.587 215.795 321.642C221.097 319.346 226.223 316.659 231.131 313.604C233.011 312.174 238.691 309.329 242.477 306.011L250.037 299.363C250.037 299.363 300.606 300.78 323.731 299.836C346.855 298.891 358.24 296.518 366.753 287.969C375.266 279.419 399.369 225.304 405.035 210.592C410.702 195.88 406.929 187.331 401.224 177.416" stroke="#263238" stroke-miterlimit="10"/>
<path d="M379.433 194.909L369.51 220.748C376.803 216.843 390.487 211.599 401.401 219.472C402.939 215.848 404.197 212.786 405.035 210.604C410.715 195.891 406.928 187.342 401.224 177.428" fill="#263238"/>
<path d="M379.433 194.909L369.51 220.748C376.803 216.843 390.487 211.599 401.401 219.472C402.939 215.848 404.197 212.786 405.035 210.604C410.715 195.891 406.928 187.342 401.224 177.428" stroke="#263238" stroke-linecap="round" stroke-linejoin="round"/>
<path d="M309.207 229.195C299.614 232.015 261.725 243.155 258.206 243.984C256.026 244.517 253.815 244.913 251.586 245.171C251.586 245.171 238.346 239.467 234.801 236.864C231.256 234.261 227 235.907 224.878 236.864C222.756 237.821 221.066 244.456 225.12 244.456C229.173 244.456 229.846 244.214 234.331 248.016C238.816 251.819 238.829 253.72 242.133 255.136C245.436 256.553 250.887 255.608 253.72 255.136C256.262 254.715 300.198 251.78 311.011 251.206C312.421 245.235 311.011 235.907 309.207 229.195Z" fill="white"/>
<g style="mix-blend-mode:multiply" opacity="0.5">
<path d="M310.719 236.061L253.721 255.201C256.262 254.779 300.199 251.845 311.011 251.27C311.977 247.111 311.621 241.433 310.719 236.061Z" fill="#0066FF"/>
</g>
<path d="M309.207 229.195C299.614 232.015 261.725 243.155 258.206 243.984C256.026 244.517 253.815 244.913 251.586 245.171C251.586 245.171 238.346 239.467 234.801 236.864C231.256 234.261 227 235.907 224.878 236.864C222.756 237.821 221.066 244.456 225.12 244.456C229.173 244.456 229.846 244.214 234.331 248.016C238.816 251.819 238.829 253.72 242.133 255.136C245.436 256.553 250.887 255.608 253.72 255.136C256.262 254.715 300.198 251.78 311.011 251.206C312.421 245.235 311.011 235.907 309.207 229.195Z" stroke="#263238" stroke-linecap="round" stroke-linejoin="round"/>
<path d="M214.473 244.699C214.473 244.699 209.505 247.545 208.12 250.862C206.735 254.18 209.531 253.236 210.484 252.534C211.436 251.832 215.452 248.489 215.452 248.489L214.473 244.699Z" fill="white" stroke="#263238" stroke-linecap="round" stroke-linejoin="round"/>
<path d="M215.896 242.312C214.966 242.912 214.23 243.771 213.778 244.784C213.327 245.797 213.18 246.92 213.355 248.016C213.825 252.048 218.081 257.982 218.564 255.608C219.047 253.235 215.896 242.312 215.896 242.312Z" fill="white" stroke="#263238" stroke-linecap="round" stroke-linejoin="round"/>
<path d="M221.805 238.752C221.805 238.752 217.308 239.939 215.897 242.312C214.487 244.685 216.837 254.906 218.502 255.608C218.855 255.767 219.24 255.844 219.627 255.831C220.013 255.818 220.392 255.717 220.734 255.535C221.076 255.352 221.372 255.094 221.6 254.78C221.827 254.465 221.98 254.102 222.047 253.719C222.517 252.048 221.805 238.752 221.805 238.752Z" fill="white" stroke="#263238" stroke-linecap="round" stroke-linejoin="round"/>
<path d="M227.483 236.379C227.483 236.379 221.562 236.379 220.863 239.237C220.165 242.095 218.97 254.422 220.152 256.323C221.334 258.224 223.227 257.509 224.167 255.136C225.107 252.763 227.483 236.379 227.483 236.379Z" fill="white" stroke="#263238" stroke-linecap="round" stroke-linejoin="round"/>
<path d="M232.858 214.268L223.15 258.66L224.675 264.325C224.698 264.412 224.743 264.491 224.806 264.555C224.869 264.618 224.948 264.664 225.035 264.687C225.121 264.711 225.212 264.711 225.298 264.687C225.385 264.664 225.463 264.618 225.526 264.555L229.77 260.318L236.86 215.454L232.858 214.268Z" fill="#263238"/>
<path d="M242.375 250.098C242.375 250.098 236.936 252.241 232.68 254.143C228.424 256.044 224.167 256.988 224.637 259.604C225.107 262.22 227.001 261.263 230.075 260.318C234.294 258.841 238.655 257.806 243.086 257.23C248.994 256.516 253.721 251.055 253.721 251.055" fill="white"/>
<path d="M242.375 250.098C242.375 250.098 236.936 252.241 232.68 254.143C228.424 256.044 224.167 256.988 224.637 259.604C225.107 262.22 227.001 261.263 230.075 260.318C234.294 258.841 238.655 257.806 243.086 257.23C248.994 256.516 253.721 251.055 253.721 251.055" stroke="#263238" stroke-linecap="round" stroke-linejoin="round"/>
<path d="M223.277 259.348L224.268 263.533C224.317 263.735 224.417 263.92 224.56 264.071C224.702 264.221 224.881 264.332 225.079 264.391C225.277 264.451 225.487 264.457 225.688 264.409C225.889 264.362 226.074 264.262 226.225 264.12L228.55 261.9" stroke="white" stroke-width="0.5" stroke-linecap="round" stroke-linejoin="round"/>
<path d="M223.164 258.659L228.183 236.176" stroke="white" stroke-width="0.5" stroke-linecap="round" stroke-linejoin="round"/>
<path d="M49.5137 170.5L113.615 230.37" stroke="#263238" stroke-width="0.5" stroke-linecap="round" stroke-linejoin="round"/>
</svg>
